<svg id="Layer_1" data-name="Layer 1" xmlns="http://www.w3.org/2000/svg" viewBox="0 0 956.58 316.37"><defs><style>.cls-1,.cls-3{fill:#113d4a;}.cls-2{fill:#fff;}.cls-3{font-size:62.09px;font-family:Bandagi;}</style></defs><title>logo fnl</title><path class="cls-1" d="M687.67,424.73h31.18l2.43,12.55,10.94-12.55H772.3q31.59,0,51,21.66t19.43,56.49q0,35.64-18.62,58.31t-49.81,22.68q-19,0-33.61-8.51t-18.63-15.79V635l-34.42,13.15ZM722.09,447v53.86q.81,26.32,14.38,43.12t32.6,16.81q16.59,0,27.13-15.39t10.53-42.52q0-25.51-10.53-40.69T769.07,447Z" transform="translate(-434.86 -361.4)"/><path class="cls-1" d="M869.48,424.73h32.4l1.21,24.7Q908,440.12,923.34,431t35.23-9.12h16.2v32.4H948q-19.85,0-32,13t-12.14,35.63v78.56H869.48Z" transform="translate(-434.86 -361.4)"/><path class="cls-1" d="M999.46,405.13V381.24c0-2.15.61-3.71,1.83-4.65s3.57-1.42,7.08-1.42h25.52v23.49a6.12,6.12,0,0,1-1.83,4.85c-1.21,1.09-3.44,1.62-6.68,1.62Zm0,19.6h34.43V538.52q0,5.67.4,12.14,0,12.15-.2,22.07t-2.23,9.92L1000,580.22l-.56-40.89Z" transform="translate(-434.86 -361.4)"/><path class="cls-1" d="M1186.55,441.74l.77-67.19,28.79-13.15V550.66q.39,12.55.2,22.27t-2.23,9.72l-27.94-2-1.62-25.11q-4.05,8.51-19.44,18.43t-35.22,9.92q-31.2,0-50-22.68T1061,502.88q0-34.81,19.64-56.49t51.22-21.66h38.87Zm-89.49,61.14q0,27.14,10.52,42.52t27.14,15.39q19,0,33-17.21t14-43.13V447h-47q-16.62,0-27.14,15.19T1097.06,502.88Z" transform="translate(-434.86 -361.4)"/><path class="cls-1" d="M1242.83,502.88q0-35.62,20.85-58.31t55.68-22.68q32.4,0,52.24,19.85t19.84,50.61v8.1q0,13.37-17.82,15h-95.16q5.26,43.32,47.38,43.32a67.86,67.86,0,0,0,21.26-3.24q9.92-3.22,23.28-12.95V577a144.9,144.9,0,0,1-44.54,6.89q-37.26,0-60.13-22.68T1242.83,502.88Zm34.42,1.62,13-12.15h67.63q0-47-38.47-47.37-40.5,0-42.11,57.9Z" transform="translate(-434.86 -361.4)"/><circle class="cls-1" cx="99.95" cy="158.56" r="99.95"/><path class="cls-2" d="M491.61,557.94a10.82,10.82,0,0,1,2.87-3.19,12.44,12.44,0,0,1,7.73-2.07c24.29.15,48.58.08,72.87.08,3.51,0,7,.13,10.52-.13,5.35-.39,8.39-3.45,8.42-8.83q.21-33.9.13-67.8c0-5.88-3.5-9.06-9.42-9.07q-50.07,0-100.15,0c-6,0-9.14,3.22-9.14,9.15q0,34.69,0,69.37V584.4Zm5.42-67h63.24a17.66,17.66,0,0,1,17.61,17.61h0a17.67,17.67,0,0,1-17.61,17.61H497Z" transform="translate(-434.86 -361.4)"/><path class="cls-2" d="M559.83,512.3l0,.09.08,0Z" transform="translate(-434.86 -361.4)"/><text class="cls-3" transform="translate(294.54 273.07)">web technologies pvt ltd.</text></svg>